<svg xmlns="http://www.w3.org/2000/svg" width="118.168" height="36.022" viewBox="0 0 118.168 36.022"><defs><style>.a{fill:#1170ff;}.b{fill:#3bb54a;}.c{fill:#33a348;}</style></defs><g transform="translate(0 0)"><path class="a" d="M1931.264,1703.039a8.836,8.836,0,0,0-1.963-3.1,9.59,9.59,0,0,0-3.23-2.142,12.646,12.646,0,0,0-8.869,0,9.484,9.484,0,0,0-3.212,2.159,8.918,8.918,0,0,0-1.963,3.177,11.2,11.2,0,0,0-.66,3.854,9.693,9.693,0,0,0,.678,3.6,8.977,8.977,0,0,0,1.981,3.034,9.288,9.288,0,0,0,3.23,2.088,11.8,11.8,0,0,0,4.391.767,11.143,11.143,0,0,0,5.835-1.427,9.036,9.036,0,0,0,3.516-3.676l-5.747-1.641a2.506,2.506,0,0,1-1.3,1.392,4.54,4.54,0,0,1-2.088.5,3.864,3.864,0,0,1-2.177-.66,2.636,2.636,0,0,1-1.106-2.159h13.17q.071-.428.125-.982t.053-1.089A10.467,10.467,0,0,0,1931.264,1703.039Zm-12.831,1.7a3.478,3.478,0,0,1,1-2.141,3.215,3.215,0,0,1,4.211,0,3.493,3.493,0,0,1,1,2.141Z" transform="translate(-1889.477 -1681.329)"/><path class="b" d="M3524.77,1552.571v-5.711h6.781v5.711Zm0,20.344V1554.14h6.781v18.774Z" transform="translate(-3431.323 -1537.858)"/><path class="b" d="M3722.43,1725.777l8.566-10.136h-8.031V1711h15.1v4l-8.53,10.136h8.851v4.641H3722.43Z" transform="translate(-3620.215 -1694.718)"/><path class="b" d="M3013.556,1581.843a5.537,5.537,0,0,1-2.677,4.961,9.232,9.232,0,0,1-2.909,1.16,15.924,15.924,0,0,1-3.516.375H2992V1563h14.7a5.006,5.006,0,0,1,2.392.571,5.981,5.981,0,0,1,1.818,1.481,6.773,6.773,0,0,1,1.159,2.07,7.071,7.071,0,0,1,.411,2.374,6.875,6.875,0,0,1-.91,3.409,5.722,5.722,0,0,1-2.73,2.445,6.177,6.177,0,0,1,4.713,6.494Zm-14.6-12.92v3.89h4.746a2.3,2.3,0,0,0,1.3-.393,1.765,1.765,0,0,0,.589-1.57,1.9,1.9,0,0,0-.5-1.481,1.715,1.715,0,0,0-1.178-.446Zm7.53,11.492a2.409,2.409,0,0,0-.5-1.552,1.574,1.574,0,0,0-1.286-.625h-5.745v4.247h5.5a2.069,2.069,0,0,0,1.445-.535A1.972,1.972,0,0,0,3006.489,1580.416Z" transform="translate(-2922.183 -1553.282)"/><path class="a" d="M1434.89,1561.9a19.5,19.5,0,0,0-2.212-1.141,20.121,20.121,0,0,0-2.158-.8,7.8,7.8,0,0,0-2.336-.375,3.246,3.246,0,0,0-1.48.286,1,1,0,0,0-.553.963,1.11,1.11,0,0,0,.321.821,3.067,3.067,0,0,0,.927.588,11.573,11.573,0,0,0,1.48.517q.874.25,1.979.606a25.965,25.965,0,0,1,3.157,1.177,9.811,9.811,0,0,1,2.407,1.516,5.847,5.847,0,0,1,1.534,2.122,7.7,7.7,0,0,1,.535,3.032,7.985,7.985,0,0,1-.838,3.834,6.879,6.879,0,0,1-2.211,2.478,9.373,9.373,0,0,1-3.1,1.338,15.078,15.078,0,0,1-3.477.41,19.8,19.8,0,0,1-2.854-.214,24.885,24.885,0,0,1-2.907-.606,25.486,25.486,0,0,1-2.782-.928,17.691,17.691,0,0,1-2.479-1.213l3-6.1a21.019,21.019,0,0,0,2.6,1.391,18.461,18.461,0,0,0,2.586.963,10.31,10.31,0,0,0,2.942.428,3,3,0,0,0,1.587-.3.923.923,0,0,0,.444-.8,1.149,1.149,0,0,0-.444-.909,4.053,4.053,0,0,0-1.231-.66q-.784-.285-1.8-.571t-2.158-.678a18.618,18.618,0,0,1-2.889-1.23,7.826,7.826,0,0,1-2-1.5,5.335,5.335,0,0,1-1.159-1.907,7.427,7.427,0,0,1-.375-2.461,8.508,8.508,0,0,1,.767-3.71,7.614,7.614,0,0,1,2.087-2.675,9.339,9.339,0,0,1,3.014-1.623,11.494,11.494,0,0,1,3.585-.553,13.6,13.6,0,0,1,2.71.266,21.7,21.7,0,0,1,2.55.678q1.172.388,2.3.891,1.07.482,1.926.91Z" transform="translate(-1417.84 -1544.123)"/><path class="c" d="M1612.613,1356.032l-2.746-.843a46.625,46.625,0,0,1-3.33,4.772,49.875,49.875,0,0,1-3.995,4.451,2.778,2.778,0,0,0-1.508.739,3.207,3.207,0,0,0-.86,1.464,54.491,54.491,0,0,1-6.956,5.157q-.843.528-1.714,1.031c-12.1,6.986-25.435,8.705-36.2,5.672,9.345.921,19.866-1.292,29.589-6.906a54.723,54.723,0,0,0,8.963-6.447,50.974,50.974,0,0,0,4.582-4.609,47.034,47.034,0,0,0,5.218-7.229l-3.254-1,10.063-8.4Z" transform="translate(-1549.203 -1343.89)"/><path class="b" d="M1610.431,1344.48c-1.048,9.536-9.508,20.652-22.487,28.146-10.989,6.342-22.608,8.584-31.242,6.781q-.707-.168-1.4-.364c9.345.921,19.865-1.292,29.589-6.906a51.346,51.346,0,0,0,18.761-18.285l-3.253-1Z" transform="translate(-1549.204 -1344.454)"/><path class="a" d="M2078.443,1707.831q.053-.552.053-1.089a10.46,10.46,0,0,0-.66-3.694,8.86,8.86,0,0,0-1.963-3.1,9.6,9.6,0,0,0-3.23-2.141,11.41,11.41,0,0,0-4.426-.8v4.82a2.894,2.894,0,0,1,2,.783,3.491,3.491,0,0,1,1,2.141h-6.476v4.069h13.577Q2078.389,1708.384,2078.443,1707.831Z" transform="translate(-2036.048 -1681.339)"/><path class="a" d="M2424.444,1703.039a8.839,8.839,0,0,0-1.963-3.1,10.009,10.009,0,0,0-4.365-2.531,12.322,12.322,0,0,0-3.29-.413,11.388,11.388,0,0,0-4.444.8q-.188.079-.369.163a9.339,9.339,0,0,0-2.843,2,8.844,8.844,0,0,0-1.739,2.613q-.12.276-.224.564a11.21,11.21,0,0,0-.661,3.854,9.885,9.885,0,0,0,.25,2.231,9.515,9.515,0,0,0,.428,1.375,8.994,8.994,0,0,0,1.981,3.034,9.278,9.278,0,0,0,3.23,2.088,11.809,11.809,0,0,0,4.391.768,11.144,11.144,0,0,0,5.835-1.428,9.028,9.028,0,0,0,3.515-3.676l-5.746-1.641a2.507,2.507,0,0,1-1.3,1.392,4.538,4.538,0,0,1-2.088.5,3.868,3.868,0,0,1-2.178-.66,2.641,2.641,0,0,1-1.108-2.159h13.17q.071-.429.125-.981t.053-1.089A10.471,10.471,0,0,0,2424.444,1703.039Zm-12.831,1.7a4.605,4.605,0,0,1,.14-.678,3.2,3.2,0,0,1,.86-1.464,2.771,2.771,0,0,1,1.508-.739,3.672,3.672,0,0,1,.6-.047,2.915,2.915,0,0,1,2.105.786,3.5,3.5,0,0,1,1,2.141Z" transform="translate(-2360.782 -1681.329)"/></g></svg>